<svg width="19" height="18" viewBox="0 0 19 18" fill="none" xmlns="http://www.w3.org/2000/svg">
<path d="M17.002 9.00012C17.002 4.86012 13.642 1.50012 9.50195 1.50012C5.36195 1.50012 2.00195 4.86012 2.00195 9.00012C2.00195 13.1401 5.36195 16.5001 9.50195 16.5001" stroke="white" stroke-linecap="round" stroke-linejoin="round"/>
<path d="M6.50117 2.25012H7.25117C5.78867 6.63012 5.78867 11.3701 7.25117 15.7501H6.50117" stroke="white" stroke-linecap="round" stroke-linejoin="round"/>
<path d="M11.752 2.25012C12.4795 4.44012 12.847 6.72012 12.847 9.00012" stroke="white" stroke-linecap="round" stroke-linejoin="round"/>
<path d="M2.75195 12.0001V11.2501C4.94195 11.9776 7.22195 12.3451 9.50195 12.3451" stroke="white" stroke-linecap="round" stroke-linejoin="round"/>
<path d="M2.75195 6.75007C7.13195 5.28757 11.872 5.28757 16.252 6.75007" stroke="white" stroke-linecap="round" stroke-linejoin="round"/>
<path d="M14.15 16.05C15.4755 16.05 16.55 14.9755 16.55 13.65C16.55 12.3245 15.4755 11.25 14.15 11.25C12.8245 11.25 11.75 12.3245 11.75 13.65C11.75 14.9755 12.8245 16.05 14.15 16.05Z" stroke="white" stroke-linecap="round" stroke-linejoin="round"/>
<path d="M17 16.5L16.25 15.75" stroke="white" stroke-linecap="round" stroke-linejoin="round"/>
</svg>
